<mxfile host="app.diagrams.net" modified="2023-12-08T08:52:25.560Z" agent="Mozilla/5.0 (Windows NT 10.0; Win64; x64) AppleWebKit/537.36 (KHTML, like Gecko) Chrome/120.0.0.0 Safari/537.36" etag="Ojlr8Mom6_2ZgZCIWTxt" version="21.6.1" type="github">
  <diagram name="第 1 页" id="BCQUyjtqmzLGjh9cX_vp">
    <mxGraphModel dx="794" dy="470" grid="1" gridSize="10" guides="1" tooltips="1" connect="1" arrows="1" fold="1" page="1" pageScale="1" pageWidth="827" pageHeight="1169" math="0" shadow="0">
      <root>
        <mxCell id="0" />
        <mxCell id="1" parent="0" />
        <mxCell id="Sd76gMTyIaL-4WNEAxPR-7" value="" style="edgeStyle=orthogonalEdgeStyle;rounded=0;orthogonalLoop=1;jettySize=auto;html=1;entryX=0;entryY=0.5;entryDx=0;entryDy=0;" edge="1" parent="1" source="Sd76gMTyIaL-4WNEAxPR-2" target="Sd76gMTyIaL-4WNEAxPR-8">
          <mxGeometry relative="1" as="geometry">
            <mxPoint x="305" y="210" as="targetPoint" />
          </mxGeometry>
        </mxCell>
        <mxCell id="Sd76gMTyIaL-4WNEAxPR-2" value="&lt;font style=&quot;font-size: 15px;&quot;&gt;&lt;b&gt;Vin1&lt;/b&gt;&lt;/font&gt;" style="shape=ext;double=1;rounded=1;whiteSpace=wrap;html=1;" vertex="1" parent="1">
          <mxGeometry x="150" y="190" width="90" height="40" as="geometry" />
        </mxCell>
        <mxCell id="Sd76gMTyIaL-4WNEAxPR-10" style="edgeStyle=orthogonalEdgeStyle;rounded=0;orthogonalLoop=1;jettySize=auto;html=1;" edge="1" parent="1" source="Sd76gMTyIaL-4WNEAxPR-3" target="Sd76gMTyIaL-4WNEAxPR-9">
          <mxGeometry relative="1" as="geometry">
            <mxPoint x="320" y="240" as="targetPoint" />
          </mxGeometry>
        </mxCell>
        <mxCell id="Sd76gMTyIaL-4WNEAxPR-3" value="&lt;font style=&quot;font-size: 15px;&quot;&gt;&lt;b&gt;Vin2&lt;/b&gt;&lt;/font&gt;" style="shape=ext;double=1;rounded=1;whiteSpace=wrap;html=1;" vertex="1" parent="1">
          <mxGeometry x="160" y="220" width="90" height="40" as="geometry" />
        </mxCell>
        <mxCell id="Sd76gMTyIaL-4WNEAxPR-12" style="edgeStyle=orthogonalEdgeStyle;rounded=0;orthogonalLoop=1;jettySize=auto;html=1;" edge="1" parent="1" source="Sd76gMTyIaL-4WNEAxPR-4" target="Sd76gMTyIaL-4WNEAxPR-11">
          <mxGeometry relative="1" as="geometry" />
        </mxCell>
        <mxCell id="Sd76gMTyIaL-4WNEAxPR-4" value="&lt;font style=&quot;font-size: 15px;&quot;&gt;&lt;b&gt;Vin3&lt;/b&gt;&lt;/font&gt;" style="shape=ext;double=1;rounded=1;whiteSpace=wrap;html=1;" vertex="1" parent="1">
          <mxGeometry x="170" y="250" width="90" height="40" as="geometry" />
        </mxCell>
        <mxCell id="Sd76gMTyIaL-4WNEAxPR-14" style="edgeStyle=orthogonalEdgeStyle;rounded=0;orthogonalLoop=1;jettySize=auto;html=1;entryX=0;entryY=0.5;entryDx=0;entryDy=0;" edge="1" parent="1" source="Sd76gMTyIaL-4WNEAxPR-5" target="Sd76gMTyIaL-4WNEAxPR-13">
          <mxGeometry relative="1" as="geometry" />
        </mxCell>
        <mxCell id="Sd76gMTyIaL-4WNEAxPR-5" value="&lt;font style=&quot;font-size: 15px;&quot;&gt;&lt;b&gt;VinN&lt;/b&gt;&lt;/font&gt;" style="shape=ext;double=1;rounded=1;whiteSpace=wrap;html=1;" vertex="1" parent="1">
          <mxGeometry x="180" y="280" width="90" height="40" as="geometry" />
        </mxCell>
        <mxCell id="Sd76gMTyIaL-4WNEAxPR-8" value="&lt;font style=&quot;font-size: 15px;&quot;&gt;&lt;b&gt;Vin1&lt;/b&gt;&lt;/font&gt;" style="shape=ext;double=1;rounded=1;whiteSpace=wrap;html=1;" vertex="1" parent="1">
          <mxGeometry x="400" y="130" width="90" height="40" as="geometry" />
        </mxCell>
        <mxCell id="Sd76gMTyIaL-4WNEAxPR-9" value="&lt;font style=&quot;font-size: 15px;&quot;&gt;&lt;b&gt;Vin2&lt;/b&gt;&lt;/font&gt;" style="shape=ext;double=1;rounded=1;whiteSpace=wrap;html=1;" vertex="1" parent="1">
          <mxGeometry x="400" y="200" width="90" height="40" as="geometry" />
        </mxCell>
        <mxCell id="Sd76gMTyIaL-4WNEAxPR-11" value="&lt;font style=&quot;font-size: 15px;&quot;&gt;&lt;b&gt;Vin3&lt;/b&gt;&lt;/font&gt;" style="shape=ext;double=1;rounded=1;whiteSpace=wrap;html=1;" vertex="1" parent="1">
          <mxGeometry x="400" y="270" width="90" height="40" as="geometry" />
        </mxCell>
        <mxCell id="Sd76gMTyIaL-4WNEAxPR-13" value="&lt;font style=&quot;font-size: 15px;&quot;&gt;&lt;b&gt;VinN&lt;/b&gt;&lt;/font&gt;" style="shape=ext;double=1;rounded=1;whiteSpace=wrap;html=1;" vertex="1" parent="1">
          <mxGeometry x="400" y="340" width="90" height="40" as="geometry" />
        </mxCell>
      </root>
    </mxGraphModel>
  </diagram>
</mxfile>
